<svg xmlns="http://www.w3.org/2000/svg" viewBox="0 0 21.333332 21.333332"><defs><clipPath id="a"><path d="M0 16h16V0H0z"/></clipPath><clipPath id="b"><path d="M0 16h16V0H0z"/></clipPath></defs><path d="M7.448 2.666L5.332 4.782v3.22H2.114L0 10.113v5.105l2.114 2.114h6.438l2.115-2.115V12h3.22l2.112-2.115V4.782l-2.114-2.116z" fill="#f6f6f6"/><path d="M8 12H2.667v-1.334H8zm0 2.666H2.667v-1.333H8zm0-5.333H2.667l-1.334 1.333v4L2.667 16H8l1.333-1.334v-4zM13.333 6.666H8V5.333h5.333zm0-2.666H8L6.667 5.333V8h6.666v1.333H9.885l.782.78v.553h2.666l1.334-1.333v-4z" fill="#c27d1a"/><path d="M8 10.666H2.667V12H8zm0 2.667H2.667v1.333H8zm5.333-8H8v1.333h5.333zm0 2.667v1.333H9.885L8.552 8z" fill="#f0eff1"/></svg>