<svg xmlns="http://www.w3.org/2000/svg" viewBox="0 0 21.333332 21.333332"><defs><clipPath id="a"><path d="M0 16h16V0H0z"/></clipPath><clipPath id="b"><path d="M0 16h16V0H0z"/></clipPath><clipPath id="c"><path d="M0 16h16V0H0z"/></clipPath></defs><g clip-path="url(#c)" transform="matrix(1.33333 0 0 -1.33333 0 21.333)"><path d="M9.25 12H9v2H2v-2h-.25C.785 12 0 11.215 0 10.25v-4.5C0 4.785.785 4 1.75 4h7.5c.965 0 1.75.785 1.75 1.75v4.5c0 .965-.785 1.75-1.75 1.75" fill="#f6f6f6"/><path d="M9 6H8v4h1zm-5 6h3v-1H4zM3 6H2v4h1zm6.25 5H8v2H3v-2H1.75c-.414 0-.75-.336-.75-.75v-4.5c0-.414.336-.75.75-.75h7.5c.414 0 .75.336.75.75v4.5c0 .414-.336.75-.75.75" fill="#652d90"/></g><path d="M2.667 13.333H4V8H2.667zM10.667 13.333H12V8h-1.333z" fill="#f0eff1"/></svg>