<svg xmlns="http://www.w3.org/2000/svg" viewBox="0 0 21.333332 21.333332"><defs><clipPath id="a"><path d="M0 16h16V0H0z"/></clipPath><clipPath id="b"><path d="M0 16h16V0H0z"/></clipPath></defs><path d="M0 1.334V20h17.333v-4h4v-4H20V8h-8V6.668h9.333v-4H12V1.334zM10.667 12H12v4h-1.333z" fill="#f6f6f6"/><path d="M9.333 4H2.667v1.333h6.666zm1.334 2.666H1.333v-4h9.334zM20 13.333h-6.667v1.333H20zm-10.667 0h-8v1.333h8zm6.667 4H1.333v1.333H16zm-2.667-8h-12v1.333h12zm5.334 0H16v1.333h2.667zm1.333-4h-6.667V4H20z" fill="#424242"/><path d="M2.667 5.333h6.666V4H2.667z" fill="#f0eff1"/></svg>