<svg xmlns="http://www.w3.org/2000/svg" viewBox="0 0 21.33 21.33"><path d="M18.51.89H2.82L0 3.707v13.916l2.818 2.817h15.693l2.819-2.818V3.707z" fill="#f6f6f6"/><path d="M17.775 16.15l-.736.736H4.29l-.736-.736V5.18l.736-.736H17.04l.736.736zm0-13.483H3.555L1.778 4.444v12.442l1.777 1.777h14.22l1.777-1.777V4.444z" fill="#424242"/><path d="M7.11 9.776h7.11V7.999H7.11zm0 3.555h7.11v-1.778H7.11z" fill="#00539c"/><path d="M14.22 9.776H7.11V7.999h7.11zm0 3.555H7.11v-1.778h7.11zm2.819-8.887H4.29l-.736.736v10.97l.736.734H17.04l.736-.734V5.18z" fill="#f0eff1"/></svg>