<svg xmlns="http://www.w3.org/2000/svg" viewBox="0 0 21.33 21.33"><path d="M16.552 2.667H4.782L2.666 4.78v10.44l2.114 2.113h11.772l2.115-2.114V4.78z" fill="#f6f6f6"/><path d="M16 14.115l-.552.552H5.885l-.552-.552v-8.23l.552-.552h9.563l.552.552zM16 4H5.333L4 5.333v9.334L5.333 16H16l1.333-1.333V5.333z" fill="#424242"/><path d="M8 9.333h5.333V8H8zM8 12h5.333v-1.334H8z" fill="#00539c"/><path d="M13.333 9.333H8V8h5.333zm0 2.667H8v-1.334h5.333zm2.115-6.667H5.885l-.552.552v8.23l.552.55h9.563l.552-.55v-8.23z" fill="#f0eff1"/></svg>