<svg xmlns="http://www.w3.org/2000/svg" viewBox="0 0 21.33 21.33"><path d="M17.94 4.61h-.49V.58H3.88V4.6h-.49A3.47 3.47 0 000 8.14v9.08a3.47 3.47 0 003.4 3.53h14.54c1.87 0 3.39-1.58 3.39-3.53V8.14a3.47 3.47 0 00-3.4-3.53" fill="#f6f6f6"/><path d="M17.45 16.72h-1.94V8.65h1.94zm-9.7-12.1h5.82v2H7.76zm-1.93 12.1H3.88V8.65h1.94zm12.12-10.1H15.5V2.6h-9.7v4.04H3.4c-.8 0-1.45.68-1.45 1.51v9.08c0 .84.65 1.52 1.45 1.52h14.55c.8 0 1.45-.68 1.45-1.52V8.14c0-.83-.65-1.51-1.45-1.51" fill="#652d90"/><path d="M3.88 16.72h1.94V8.64H3.88zm11.64 0h1.94V8.64h-1.94z" fill="#f0eff1"/></svg>