<svg xmlns="http://www.w3.org/2000/svg" viewBox="0 0 21.33 21.33"><path d="M13.33 6.67v6.11l-2.66-2.66v6.44l4.78 4.78h1.11l4.78-4.78v-6.44l-2.66 2.66V6.67z" fill="#f6f6f6"/><path d="M.22 11.23V3.81L6.735.516l6.27 3.31v7.35l-5.95 4.36z" fill="#f6f6f6"/><path d="M10.92 10.131l-3.43 2.48V7.99L10.92 5.9zM6.63 12.75v.021l-.012-.01-.01.01v-.021L2.38 10V5.57L6.66 7.96v4.77zm.034-9.83l4.09 2.02-3.82 2.29L2.81 4.87zm5.01 7.58v-5.87L6.72 2.01 1.56 4.63v5.87l5.44 3.43z" fill="#652d90"/><path d="M6.66 2.92l4.09 2.02-3.82 2.29-4.13-2.35z" fill="#f0eff1"/><path d="M6.66 2.92l4.09 2.02-3.82 2.29-4.13-2.35z" fill="none" stroke="#652d90" stroke-width=".2" /><path d="M6.63 12.75v.021l-.01-.01-.01.01v-.02L2.38 10V5.57L6.66 7.96v4.77z" fill="#f0eff1"/><path d="M6.63 12.75v0.021l-0.014-0.01l-0.01 0.01v-0.021l-4.226 -2.75v-4.43l4.28 2.39v4.77z" fill="none" stroke="#652d90" stroke-width=".2" /><path d="M10.92 10.131l-3.434 2.475V7.99L10.92 5.9z" fill="#f0eff1"/><path d="M10.92 10.13l-3.43 2.48V7.99L10.92 5.9z" fill="none" stroke="#652d90" stroke-width=".2" /><path d="M16 20l-4-4v-2.67L14.67 16v-2.67h2.67V16L20 13.33V16zM14.667 12h2.67v-1.33h-2.67zM14.67 9.33h2.67V8h-2.67z" fill="#424242"/></svg>