<svg xmlns="http://www.w3.org/2000/svg" viewBox="0 0 64 64"><defs><clipPath id="a"><path d="M0 48h48V0H0z"/></clipPath><clipPath id="b"><path d="M0 48h48V0H0z"/></clipPath><clipPath id="c"><path d="M0 48h48V0H0z"/></clipPath></defs><g clip-path="url(#a)" transform="matrix(1.33333 0 0 -1.33333 0 64)"><path d="M34.5 11c-5.742 0-10.802 3.727-12.68 9h-5.048C15.2 17.27 12.264 15.5 9 15.5c-4.963 0-9 4.037-9 9s4.037 9 9 9c3.264 0 6.2-1.764 7.772-4.5h5.048c1.878 5.28 6.938 9 12.68 9C41.944 38 48 31.947 48 24.5 48 17.06 41.944 11 34.5 11" fill="#f6f6f6"/></g><g clip-path="url(#b)" transform="matrix(1.33333 0 0 -1.33333 0 64)"><path d="M34.5 20c-2.48 0-4.5 2.02-4.5 4.5 0 2.484 2.02 4.5 4.5 4.5s4.5-2.016 4.5-4.5c0-2.48-2.02-4.5-4.5-4.5m0 15c-5.013 0-9.17-3.543-10.204-8.25h-9.772C13.636 28.943 11.512 30.5 9 30.5c-3.313 0-6-2.684-6-6 0-3.313 2.687-6 6-6 2.512 0 4.636 1.557 5.524 3.75h9.772C25.33 17.545 29.486 14 34.5 14 40.29 14 45 18.71 45 24.5 45 30.292 40.29 35 34.5 35" fill="#00539c"/></g><g clip-path="url(#c)" transform="matrix(1.33333 0 0 -1.33333 0 64)"><path d="M34.5 20c-2.48 0-4.5 2.02-4.5 4.5 0 2.484 2.02 4.5 4.5 4.5s4.5-2.016 4.5-4.5c0-2.48-2.02-4.5-4.5-4.5" fill="#f0eff1"/></g></svg>