<svg xmlns="http://www.w3.org/2000/svg" viewBox="0 0 21.33 21.33"><path d="M1.594 15.216V4.679L10.838.003l8.903 4.696v10.433l-8.449 6.196z" fill="#f6f6f6"/><path d="M16.778 13.651l-4.874 3.514v-6.553l4.876-2.967zm-6.093 3.715v.031l-.017-.014-.015.014v-.03L4.66 13.457v-6.28l6.075 3.393v6.761zm.048-13.956l5.811 2.863-5.422 3.255-5.856-3.34zm7.116 10.762V5.84l-7.027-3.708L3.49 5.84v8.332l7.722 4.866z" fill="#652d90"/><path d="M10.731 3.411l5.81 2.862-5.42 3.256-5.857-3.341z" fill="#f0eff1"/><path d="M10.731 3.411l5.81 2.862-5.42 3.256-5.857-3.341z" fill="none" stroke="#652d90" stroke-width=".2839"/><path d="M10.686 17.366v.031l-.02-.014-.014.014v-.03L4.656 13.46V7.178l6.075 3.393v6.761z" fill="#f0eff1"/><path d="M10.686 17.366v.031l-.02-.014-.014.014v-.03L4.656 13.46V7.178l6.075 3.393v6.761z" fill="none" stroke="#652d90" stroke-width=".2839"/><path d="M16.778 13.651l-4.874 3.514v-6.553l4.876-2.967z" fill="#f0eff1"/><path d="M16.778 13.651l-4.874 3.514v-6.553l4.876-2.967z" fill="none" stroke="#652d90" stroke-width=".2839"/></svg>