<svg xmlns="http://www.w3.org/2000/svg" viewBox="0 0 21.33 21.33"><g transform="matrix(1.333 0 0 -1.333 0 21.333)"><path d="M7 5H6v1c0 .535-.74 1.612-1 2 .26.39 1 1.466 1 2v1h1v3H6c-1.97-.02-3-1.277-3-3 0 0 .004-.965 0-1L2 9V7l1-1c.003-.03 0-1 0-1 0-1.71 1.317-2.98 3.286-3H7zm2 0h1v1c0 .535.74 1.612 1 2-.26.39-1 1.466-1 2v1H9v3h1c1.97-.02 3-1.277 3-3 0 0-.004-.965 0-1l1-1V7l-1-1c-.003-.03 0-1 0-1 0-1.71-1.03-2.98-3-3H9z" fill="#f6f6f6"/></g><g transform="matrix(1.333 0 0 -1.333 0 21.333)"><path d="M5 5v1c0 .834-.496 1.737-1 2 .504.27 1 1.167 1 2v1c0 .84.584 1 1 1v1c-2.083 0-2-1.167-2-2v-1c0-.97-.703-.98-1-1V7c.322-.02 1-.053 1-1V5c0-.834-.083-2 2-2v1c-.833 0-1 1-1 1m6 0v1c0 .834.496 1.737 1 2-.504.27-1 1.167-1 2v1c0 .84-.584 1-1 1v1c2.083 0 2-1.167 2-2v-1c0-.97.703-.98 1-1V7c-.322-.02-1-.053-1-1V5c0-.834.083-2-2-2v1c.833 0 1 1 1 1" fill="#424242"/></g></svg>