<svg xmlns="http://www.w3.org/2000/svg" viewBox="0 0 64 64"><g transform="matrix(1.333 0 0 -1.333 0 64)"><path d="M11.89 4.667c-1.278 0-3.183.385-5.01 2.213-3.76 3.756-2.06 8.185 0 10.242l8.72 8.724C15.203 27.2 15 28.594 15 30c0 8.27 6.73 15 15 15 2.11 0 4.18-.453 6.156-1.344l3.958-1.787-8.87-8.87L33 31.242l8.87 8.87 1.786-3.954C44.55 34.18 45 32.108 45 30c0-8.27-6.73-15-15-15-1.406 0-2.798.202-4.157.605L17.12 6.88c-.368-.37-2.357-2.213-5.23-2.213" fill="#f6f6f6"/></g><g transform="matrix(1.333 0 0 -1.333 0 64)"><path d="M40.922 34.922L33 27l-6 6 7.922 7.922C33.416 41.602 31.758 42 30 42c-6.627 0-12-5.373-12-12 0-1.758.4-3.416 1.078-4.922L9 15s-3-3 0-6 6 0 6 0l10.078 10.078C26.584 18.398 28.242 18 30 18c6.627 0 12 5.373 12 12 0 1.758-.398 3.416-1.078 4.922" fill="#424242"/></g></svg>