<svg xmlns="http://www.w3.org/2000/svg" viewBox="0 0 21.33 21.33"><path d="M6.667 6.33V4H0v13.334h6.667v-2.48l2.875 1.437 5.124-2.563v3.607h6.668V4h-6.668v1.352l-3.02-1.51zm10.52 6.138V8h.146v5.332h-1.88z" fill="#f6f6f6"/><path d="M5.333 6.667V5.333h-4V16h4v-1.333H2.667v-8zM16 14.667V16h4V5.333h-4v1.334h2.667v8zM9.54 9.54L7.438 8.49l4.208-2.105 2.104 1.052zm2.105-4.207L5.333 8.49v4.207L9.54 14.8l6.312-3.156V7.437z" fill="#424242"/><path d="M9.54 9.54L7.438 8.49l4.208-2.105 2.104 1.052z" fill="#f0eff1"/></svg>