<svg xmlns="http://www.w3.org/2000/svg" viewBox="0 0 21.33 21.33"><path d="M9.93.89L7.11 3.7v4.3H2.8L0 10.8v6.81l2.82 2.82h8.58l2.82-2.82v-4.29h4.3l2.81-2.82v-6.8L18.51.89z" fill="#f6f6f6"/><path d="M10.67 13.33H3.56v-1.78h7.1zm0 3.56H3.56V15.1h7.1zm0-7.11H3.56l-1.78 1.77v5.34l1.78 1.78h7.1l1.78-1.78v-5.34zm7.1-3.56h-7.1V4.44h7.1zm0-3.55h-7.1L8.89 4.44V8h8.89v1.78h-4.6l1.04 1.04v.73h3.56l1.77-1.77V4.44z" fill="#c27d1a"/><path d="M10.67 11.55H3.56v1.78h7.1zm0 3.56H3.56v1.78h7.1zm7.1-10.67h-7.1v1.78h7.1zm0 3.56v1.78h-4.6L11.4 8z" fill="#f0eff1"/></svg>