<svg xmlns="http://www.w3.org/2000/svg" viewBox="0 0 21.33 21.33"><path d="M13.24 6.36v6.18l-2.69-2.7v6.51l4.83 4.83h1.12l4.83-4.83v-6.5l-2.69 2.69V6.36z" fill="#f6f6f6"/><path d="M0 10.97v-7.5L6.58.16l6.33 3.34v7.43l-6 4.4z" fill="#f6f6f6"/><path d="M10.8 9.86l-3.46 2.5V7.7l3.47-2.11zm-4.33 2.65v.02-.01h-.02v-.01L2.18 9.73V5.25L6.5 7.67v4.81zm.04-9.93l4.13 2.04-3.86 2.31-4.16-2.38zm5.06 7.65V4.3l-5-2.64L1.34 4.3v5.93l5.5 3.47z" fill="#652d90"/><path d="M6.5 2.58l4.13 2.04-3.85 2.31L2.6 4.56z" fill="#f0eff1"/><path d="M6.5 2.58l4.13 2.04-3.85 2.31L2.6 4.56z" fill="none" stroke="#652d90" stroke-width=".201988"/><path d="M6.47 12.5v.03-.01h-.02v-.01L2.18 9.73V5.25L6.5 7.67v4.81z" fill="#f0eff1"/><path d="M6.47 12.5v.03l-.01-.01h-.01v-.01L2.18 9.73V5.25L6.5 7.67v4.81z" fill="none" stroke="#652d90" stroke-width=".201988"/><path d="M10.8 9.86l-3.46 2.5V7.7l3.47-2.11z" fill="#f0eff1"/><path d="M10.8 9.86l-3.46 2.5V7.7l3.47-2.11z" fill="none" stroke="#652d90" stroke-width=".201988"/><path d="M15.94 19.83l-4.04-4.04v-2.7l2.7 2.7v-2.7h2.69v2.7l2.69-2.7v2.7zm-1.35-8.08h2.7V10.4h-2.7zm0-2.7h2.7V7.71h-2.7z" fill="#424242"/></svg>