<svg xmlns="http://www.w3.org/2000/svg" viewBox="0 0 64 64"><path d="M45.99 49.34c-7.66 0-14.4-4.97-16.9-12h-6.73a11.96 11.96 0 01-22.36-6c0-6.61 5.38-12 12-12 4.35 0 8.26 2.36 10.36 6h6.73c2.5-7.04 9.24-12 16.9-12 9.92 0 18 8.07 18 18 0 9.92-8.08 18-18 18" fill="#f6f6f6"/><path d="M45.99 37.34A6 6 0 1146 25.32a6 6 0 01-.02 12.02m0-20a13.96 13.96 0 00-13.6 11H19.36a7.95 7.95 0 00-7.36-5 8 8 0 100 16 7.95 7.95 0 007.36-5h13.03a13.96 13.96 0 0027.6-3c0-7.72-6.28-14-14-14" fill="#00539c"/><path d="M45.99 37.34A6 6 0 1146 25.32a6 6 0 01-.02 12.02" fill="#f0eff1"/></svg>