<svg xmlns="http://www.w3.org/2000/svg" viewBox="0 0 21.33 21.33"><path d="M1.6 15.22V4.68L10.83 0l8.9 4.7v10.43l-8.45 6.2z" fill="#f6f6f6"/><path d="M16.78 13.65l-4.88 3.51v-6.55l4.88-2.97zm-6.1 3.72v.03l-.01-.02-.02.02v-.03l-5.99-3.91V7.18l6.08 3.39v6.76zm.05-13.96l5.81 2.86-5.42 3.26-5.85-3.34zm7.12 10.76V5.84l-7.03-3.7-7.33 3.7v8.33l7.72 4.87z" fill="#652d90"/><path d="M10.73 3.41l5.81 2.86-5.42 3.26-5.86-3.34z" fill="#f0eff1"/><path d="M10.73 3.41l5.81 2.86-5.42 3.26-5.86-3.34z" fill="none" stroke="#652d90" stroke-width=".28"/><path d="M10.69 17.37v.03l-.02-.02-.02.02v-.03l-6-3.91V7.18l6.08 3.4v6.75z" fill="#f0eff1"/><path d="M10.69 17.37v.03l-.02-.02-.02.02v-.03l-6-3.91V7.18l6.08 3.4v6.75z" fill="none" stroke="#652d90" stroke-width=".28"/><path d="M16.78 13.65l-4.88 3.51v-6.55l4.88-2.97z" fill="#f0eff1"/><path d="M16.78 13.65l-4.88 3.51v-6.55l4.88-2.97z" fill="none" stroke="#652d90" stroke-width=".28"/></svg>