<svg xmlns="http://www.w3.org/2000/svg" viewBox="0 0 21.33 21.33"><path d="M8.89 16H7.1v-1.78c0-.95-1.32-2.87-1.78-3.56.46-.69 1.78-2.6 1.78-3.55V5.33h1.78V0H7.1c-3.5.04-5.33 2.27-5.33 5.33v1.78L0 8.89v3.55l1.78 1.78V16c0 3.04 2.34 5.3 5.84 5.33h1.27zm3.55 0h1.78v-1.78c0-.95 1.32-2.87 1.78-3.56-.46-.69-1.78-2.6-1.78-3.55V5.33h-1.78V0h1.78c3.5.04 5.33 2.27 5.33 5.33v1.78l1.78 1.78v3.55l-1.78 1.78V16c0 3.04-1.83 5.3-5.33 5.33h-1.78z" fill="#f6f6f6"/><path d="M5.33 16v-1.78c0-1.48-.88-3.09-1.77-3.56.9-.47 1.77-2.07 1.77-3.55V5.33c0-1.5 1.04-1.77 1.78-1.77V1.78c-3.7 0-3.55 2.07-3.55 3.55v1.78c0 1.72-1.25 1.74-1.78 1.78v3.55c.57.04 1.78.1 1.78 1.78V16c0 1.48-.15 3.55 3.55 3.55v-1.78C5.63 17.77 5.33 16 5.33 16M16 16v-1.78c0-1.48.88-3.09 1.77-3.56C16.87 10.2 16 8.6 16 7.11V5.33c0-1.5-1.04-1.77-1.78-1.77V1.78c3.7 0 3.55 2.07 3.55 3.55v1.78c0 1.72 1.25 1.74 1.78 1.78v3.55c-.57.04-1.78.1-1.78 1.78V16c0 1.48.15 3.55-3.55 3.55v-1.78C15.7 17.77 16 16 16 16" fill="#424242"/></svg>