<svg xmlns="http://www.w3.org/2000/svg" viewBox="0 0 64 64"><path d="M11.48 63.99c-2.03 0-5.05-.61-7.95-3.51-5.96-5.96-3.26-12.98 0-16.25L17.36 30.4a23.38 23.38 0 01-.95-6.59A23.82 23.82 0 0140.21.01c3.34 0 6.63.72 9.76 2.13l6.28 2.84-14.07 14.07 2.79 2.78L59.04 7.76l2.83 6.28A23.58 23.58 0 0164 23.8a23.82 23.82 0 01-23.8 23.8c-2.22 0-4.43-.32-6.59-.96L19.78 60.48c-.59.59-3.74 3.5-8.3 3.5" fill="#f6f6f6"/><path d="M57.53 16L44.97 28.56l-9.52-9.51L48 6.48a18.9 18.9 0 00-7.8-1.71 18.95 18.95 0 00-17.32 26.84l-16 15.99s-4.75 4.76 0 9.52c4.76 4.75 9.52 0 9.52 0L32.4 41.13a18.9 18.9 0 007.8 1.71A19.04 19.04 0 0059.25 23.8c0-2.78-.63-5.41-1.7-7.8" fill="#424242"/></svg>